:SAMPLES-PER-SECOND 30
:FRAME-RANGE 1-2091
:FULLY-SPECIFIED
:DEGREES
197
root  -58.7948 38.5734 6.89141 -3.06063 14.0013 -0.800464
RightUpLeg  14.7161 -5.14676 -1.76966
RightLeg  11.7938 -0.425665 -0.370679
RightFoot  -19.1824 0.493138 9.08067
RightToes  5.82063e-011 0 -3.6325e-017
Spine  5.09476 -3.32738 -7.09559
Spine1  4.02148 -5.21008 6.25476
HEad  9.24394 23.5445 -1.78207
LeftShoulder1  2.22136 -3.85534 -23.9604
LeftArm  24.8173 -45.1069 -36.1787
LeftForeArm  4.7864 -3.69306 -18.9999
LeftHand  -0.0954047 0.315687 2.16601
RightShoulder  9.65803 13.6365 49.3368
RightArm  18.0373 -0.0268504 15.8979
RightForeArm  14.3632 5.69167 16.0833
RightHand  0.384062 2.43009 5.50707
LeftUpLeg  -17.5458 9.02662 3.1362
LeftLeg  7.30014 12.8388 -1.37981
LeftFoot  10.8239 -0.292846 1.15698
LeftToes  -6.27584e-011 -2.25241e-010 2.80627e-011
198
root  -58.0375 38.3833 7.99483 -2.66936 13.9701 0.692404
RightUpLeg  12.6077 -3.07374 -3.93509
RightLeg  20.0745 -0.43299 -0.38805
RightFoot  -19.9119 0.892832 13.6668
RightToes  5.82063e-011 0 -3.6325e-017
Spine  4.99997 -3.26155 -10.2344
Spine1  3.78109 -5.50145 7.22599
HEad  9.71021 22.5195 -0.622683
LeftShoulder1  2.23485 -3.76448 -24.5507
LeftArm  26.463 -45.3733 -38.4198
LeftForeArm  6.40012 -3.91749 -18.8731
LeftHand  -0.118526 0.215754 2.65949
RightShoulder  8.21555 11.1241 49.1944
RightArm  14.8096 0.593757 16.5418
RightForeArm  18.2732 2.43744 16.7765
RightHand  0.399289 2.80168 5.44192
LeftUpLeg  -19.4128 14.0546 -0.814367
LeftLeg  14.3254 6.92801 0.844356
LeftFoot  7.05766 -0.315119 1.6804
LeftToes  -6.27584e-011 -2.25241e-010 2.80627e-011
199
root  -57.2849 38.2355 8.94404 -2.29581 13.1841 1.64279
RightUpLeg  8.04869 -1.97124 -6.18614
RightLeg  31.4289 0.49969 0.0919886
RightFoot  -16.9183 0.92009 21.0455
RightToes  5.82063e-011 0 -3.6325e-017
Spine  5.0382 -2.78998 -11.7331
Spine1  3.88546 -5.10436 6.27249
HEad  9.82642 21.1154 0.176084
LeftShoulder1  2.33577 -4.08092 -24.6026
LeftArm  26.757 -45.7277 -41.1564
LeftForeArm  8.25227 -3.83592 -18.7673
LeftHand  -0.13018 0.202136 2.91738
RightShoulder  7.26848 9.51948 48.8946
RightArm  11.1421 -0.0247959 16.9492
RightForeArm  22.7218 -0.577431 16.8764
RightHand  0.468633 4.48349 5.21424
LeftUpLeg  -20.2265 15.8208 -2.93332
LeftLeg  19.0176 5.71766 2.1348
LeftFoot  3.5166 -0.358394 2.5848
LeftToes  -6.27584e-011 -2.25241e-010 2.80627e-011
200
root  -56.5709 38.2117 9.82291 -2.15835 11.3629 2.29466
RightUpLeg  1.32726 0.56361 -7.49461
RightLeg  44.0623 -0.857475 -1.18736
RightFoot  -8.26673 -0.712358 24.0894
RightToes  5.82063e-011 0 -3.6325e-017
Spine  5.65983 -2.41218 -12.732
Spine1  3.59834 -4.81858 5.28628
HEad  9.66562 20.7697 0.513488
LeftShoulder1  2.31914 -3.98431 -24.7855
LeftArm  28.4601 -45.577 -42.5977
LeftForeArm  8.09506 -4.89484 -18.4418
LeftHand  -0.126724 0.406791 2.93226
RightShoulder  7.26421 9.61415 48.5109
RightArm  11.1071 -1.60244 17.0858
RightForeArm  21.7565 -0.766639 16.9215
RightHand  0.508677 4.4722 5.69066
LeftUpLeg  -19.5831 15.9937 -3.63631
LeftLeg  21.7135 7.04126 3.03731
LeftFoot  0.516306 -0.277576 2.64268
LeftToes  -6.27584e-011 -2.25241e-010 2.80627e-011
201
root  -55.8831 38.2543 10.7751 -2.40657 10.3602 2.74869
RightUpLeg  -5.76632 2.65604 -7.48152
RightLeg  55.5467 -3.07386 -5.22569
RightFoot  5.16824 -1.8412 12.8871
RightToes  5.82063e-011 0 -3.6325e-017
Spine  6.77108 -2.45713 -14.0092
Spine1  2.68378 -5.1168 5.66538
HEad  9.90425 21.0158 0.612738
LeftShoulder1  2.30511 -3.92183 -24.8602
LeftArm  29.0707 -45.4735 -43.6674
LeftForeArm  9.89817 -4.94493 -18.3279
LeftHand  -0.148236 0.341423 3.40144
RightShoulder  7.83367 10.4112 49.3152
RightArm  15.6098 -3.13219 15.8161
RightForeArm  19.3059 0.983447 17.1576
RightHand  0.568983 4.64646 6.27501
LeftUpLeg  -18.0096 17.3171 -4.29321
LeftLeg  23.2353 6.68865 3.28293
LeftFoot  -2.28366 -0.175838 2.39403
LeftToes  -6.27584e-011 -2.25241e-010 2.80627e-011
202
root  -55.2673 38.2943 11.7026 -2.7631 9.95955 2.96492
RightUpLeg  -10.8163 3.82334 -7.37426
RightLeg  62.713 -2.83366 -6.50561
RightFoot  5.10515 -1.69014 11.8994
RightToes  5.82063e-011 0 -3.6325e-017
Spine  7.0852 -2.80929 -15.0918
Spine1  3.09536 -5.76094 5.69593
HEad  10.1436 21.3893 0.458735
LeftShoulder1  2.29482 -3.98634 -24.4366
LeftArm  24.9494 -45.712 -44.8042
LeftForeArm  13.9991 -3.64341 -18.3402
LeftHand  -0.161066 0.646117 3.90152
RightShoulder  7.61837 10.0256 49.3287
RightArm  17.5282 -3.20564 16.1656
RightForeArm  20.5671 1.7492 17.0563
RightHand  0.607301 5.03473 6.44134
LeftUpLeg  -16.1834 17.2845 -4.44148
LeftLeg  24.3635 7.0549 3.4778
LeftFoot  -4.66568 -0.0902036 2.02894
LeftToes  -6.27584e-011 -2.25241e-010 2.80627e-011
203
root  -54.6717 38.4083 12.6778 -3.14335 9.88511 2.80423
RightUpLeg  -14.9716 4.43254 -6.73859
RightLeg  66.1543 -2.04804 -5.72262
RightFoot  2.63459 -1.57842 12.9743
RightToes  5.82063e-011 0 -3.6325e-017
Spine  7.57269 -3.19416 -15.5787
Spine1  2.75191 -6.37881 6.07807
HEad  10.7961 21.5172 -0.0210045
LeftShoulder1  2.30782 -3.9929 -24.5904
LeftArm  20.4041 -45.8124 -45.595
LeftForeArm  18.3934 -2.37816 -18.217
LeftHand  -0.162704 0.553742 3.87724
RightShoulder  7.11468 9.16259 49.2107
RightArm  18.9807 -3.53875 16.4409
RightForeArm  19.8897 3.11351 16.7922
RightHand  0.68241 4.94464 7.3424
LeftUpLeg  -13.7631 17.1836 -4.00772
LeftLeg  24.4956 7.13083 3.03556
LeftFoot  -6.63433 -0.0409003 1.96709
LeftToes  -6.27584e-011 -2.25241e-010 2.80627e-011
204
root  -54.095 38.5704 13.6713 -3.27013 9.85105 2.63954
RightUpLeg  -18.8357 4.84256 -5.78121
RightLeg  66.5476 -1.93036 -5.5396
RightFoot  2.00106 -1.45025 12.4713
RightToes  5.82063e-011 0 -3.6325e-017
Spine  7.82913 -3.55333 -15.842
Spine1  2.09389 -6.82235 6.58191
HEad  11.5348 21.5416 -0.235145
LeftShoulder1  2.26388 -3.92015 -24.2857
LeftArm  18.9074 -45.6748 -47.0862
LeftForeArm  20.1028 -2.04489 -18.0751
LeftHand  -0.1562 0.551914 3.71823
RightShoulder  6.67526 8.44918 48.9305
RightArm  21.1209 -4.47747 16.6975
RightForeArm  17.1605 4.95798 16.4211
RightHand  0.681209 4.79313 7.44787
LeftUpLeg  -11.1321 15.665 -3.42766
LeftLeg  23.7744 8.6073 2.56225
LeftFoot  -8.12057 0.0105092 1.36362
LeftToes  -6.27584e-011 -2.25241e-010 2.80627e-011
